<?xml version="1.0" encoding="UTF-8" standalone="no"?>
<svg width="98px" height="98px" viewBox="0 0 98 98" version="1.1" xmlns="http://www.w3.org/2000/svg" xmlns:xlink="http://www.w3.org/1999/xlink" xmlns:sketch="http://www.bohemiancoding.com/sketch/ns">
    <!-- Generator: sketchtool 3.5.1 (25234) - http://www.bohemiancoding.com/sketch -->
    <title>icon-make</title>
    <desc>Created with sketchtool.</desc>
    <defs></defs>
    <g id="Homepage-Redesign" stroke="none" stroke-width="1" fill="none" fill-rule="evenodd" sketch:type="MSPage">
        <g id="Homepage-Web-Redesign" sketch:type="MSArtboardGroup" transform="translate(-551.000000, -595.000000)">
            <g id="3-points-+-header" sketch:type="MSLayerGroup" transform="translate(150.000000, 498.000000)">
                <g id="icon-make" transform="translate(401.000000, 96.000000)" sketch:type="MSShapeGroup">
                    <path d="M15.0995905,69.507125 L29.2433582,83.6508928 L25.7078582,87.1863928 L11.5640905,73.042625 L15.0995905,69.507125 L15.0995905,69.507125 Z" id="Rectangle-path" fill="#52B1B9"></path>
                    <path d="M68.8638035,15.741875 L83.0058035,29.883875 L79.4703035,33.419375 L65.3283035,19.277375 L68.8638035,15.741875 L68.8638035,15.741875 Z" id="Rectangle-path" fill="#52B1B9"></path>
                    <path d="M3.2975,95.4525 L6.35,74.7225 L72.7075,8.365 C75.1,5.97 79.2725,5.97 81.6675,8.365 L90.3825,17.0825 C91.58,18.28 92.24,19.87 92.24,21.5625 C92.24,23.255 91.58,24.845 90.3825,26.0425 L24.0275,92.4 L3.2975,95.4525 L3.2975,95.4525 Z M11.055,77.0875 L9.225,89.525 L21.6625,87.695 L86.85,22.505 C87.1025,22.2525 87.2425,21.9175 87.2425,21.56 C87.2425,21.2025 87.1025,20.8675 86.85,20.6175 L78.1325,11.9 C77.6275,11.395 76.7475,11.395 76.245,11.9 L11.055,77.0875 L11.055,77.0875 Z" id="Shape" fill="#3D464D"></path>
                    <path d="M74.3825,98.6125 L49.375,73.6075 L52.9125,70.0725 L74.3825,91.5425 L90.2925,75.6325 L68.4175,53.7575 L71.9525,50.2225 L97.3625,75.6325 L74.3825,98.6125 Z" id="Shape" fill="#3D464D"></path>
                    <path d="M25.6925,49.9225 L0.1375,24.3675 L23.1175,1.3875 L48.5175,26.785 L44.9825,30.32 L23.1175,8.4575 L7.2075,24.3675 L29.2275,46.3875 L25.6925,49.9225 Z" id="Shape" fill="#3D464D"></path>
                    <path d="M30.1905052,11.9920942 L33.7260052,15.5275942 L26.6550052,22.5985942 L23.1195052,19.0630942 L30.1905052,11.9920942 L30.1905052,11.9920942 Z" id="Rectangle-path" fill="#3D464D"></path>
                    <path d="M40.7952375,22.598453 L44.3307375,26.133953 L37.2597375,33.204953 L33.7242375,29.669453 L40.7952375,22.598453 L40.7952375,22.598453 Z" id="Rectangle-path" fill="#3D464D"></path>
                    <path d="M72.6154875,54.418047 L76.1509875,57.953547 L69.0799875,65.024547 L65.5444875,61.489047 L72.6154875,54.418047 L72.6154875,54.418047 Z" id="Rectangle-path" fill="#3D464D"></path>
                    <path d="M83.2217375,65.0256735 L86.7572375,68.5611735 L79.6862375,75.6321735 L76.1507375,72.0966735 L83.2217375,65.0256735 L83.2217375,65.0256735 Z" id="Rectangle-path" fill="#3D464D"></path>
                </g>
            </g>
        </g>
    </g>
</svg>