<?xml version="1.0" encoding="UTF-8" standalone="no"?>
<svg width="108px" height="95px" viewBox="0 0 108 95" version="1.1" xmlns="http://www.w3.org/2000/svg" xmlns:xlink="http://www.w3.org/1999/xlink" xmlns:sketch="http://www.bohemiancoding.com/sketch/ns">
    <!-- Generator: sketchtool 3.5.1 (25234) - http://www.bohemiancoding.com/sketch -->
    <title>icon-questions</title>
    <desc>Created with sketchtool.</desc>
    <defs></defs>
    <g id="Homepage-Redesign" stroke="none" stroke-width="1" fill="none" fill-rule="evenodd" sketch:type="MSPage">
        <g id="Homepage-Web-Redesign" sketch:type="MSArtboardGroup" transform="translate(-227.000000, -603.000000)">
            <g id="3-points-+-header" sketch:type="MSLayerGroup" transform="translate(150.000000, 498.000000)">
                <g id="icon-questions" transform="translate(81.000000, 109.000000)" sketch:type="MSShapeGroup">
                    <path d="M36,70 L89.9999362,70 C95.5252671,70 100,65.5263857 100,60.0079028 L100,9.99209717 C100,4.48530063 95.5228189,0 89.9999362,0 L10.0000638,0 C4.47473288,0 0,4.47361428 0,9.99209717 L0,60.0079028 C0,65.5146994 4.47718108,70 10.0000638,70 L17,70 L17,84.0047466 C17,86.7635489 18.5860837,87.4139163 20.5295603,85.4704397 L36,70 Z" id="Rectangle-321" stroke="#52B1B9" stroke-width="4"></path>
                    <path d="M47.2578125,40.59375 L47.2578125,39.09375 C47.2578125,37.3749914 47.5703094,35.9453182 48.1953125,34.8046875 C48.8203156,33.6640568 49.9140547,32.4843811 51.4765625,31.265625 C53.3359468,29.7968677 54.5351536,28.6562541 55.0742188,27.84375 C55.6132839,27.0312459 55.8828125,26.0625056 55.8828125,24.9375 C55.8828125,23.6249934 55.4453169,22.617191 54.5703125,21.9140625 C53.6953081,21.210934 52.4375082,20.859375 50.796875,20.859375 C49.3124926,20.859375 47.9375063,21.0703104 46.671875,21.4921875 C45.4062437,21.9140646 44.171881,22.421872 42.96875,23.015625 L41,18.890625 C44.1718909,17.1249912 47.5702944,16.2421875 51.1953125,16.2421875 C54.2578278,16.2421875 56.687491,16.99218 58.484375,18.4921875 C60.281259,19.992195 61.1796875,22.0624868 61.1796875,24.703125 C61.1796875,25.8750059 61.0078142,26.9179642 60.6640625,27.8320312 C60.3203108,28.7460983 59.8007847,29.6171834 59.1054688,30.4453125 C58.4101528,31.2734416 57.210946,32.3515559 55.5078125,33.6796875 C54.0546802,34.8203182 53.0820337,35.7656212 52.5898438,36.515625 C52.0976538,37.2656288 51.8515625,38.2734312 51.8515625,39.5390625 L51.8515625,40.59375 L47.2578125,40.59375 Z M46.296875,48.0703125 C46.296875,45.7109257 47.445301,44.53125 49.7421875,44.53125 C50.8671931,44.53125 51.7265595,44.8398407 52.3203125,45.4570312 C52.9140655,46.0742218 53.2109375,46.9453069 53.2109375,48.0703125 C53.2109375,49.179693 52.9101593,50.0585905 52.3085938,50.7070312 C51.7070282,51.355472 50.851568,51.6796875 49.7421875,51.6796875 C48.632807,51.6796875 47.781253,51.3632844 47.1875,50.7304688 C46.593747,50.0976531 46.296875,49.2109432 46.296875,48.0703125 L46.296875,48.0703125 Z" id="?" fill="#4A4A4A"></path>
                </g>
            </g>
        </g>
    </g>
</svg>